<svg xmlns="http://www.w3.org/2000/svg" width="375" height="200" viewBox="0 0 375 200">
  <title></title><defs>
    <style>
      .cls-1, .cls-10, .cls-14, .cls-17, .cls-18, .cls-22, .cls-23, .cls-24, .cls-4, .cls-8, .cls-9 {
        fill: none;
      }

      .cls-1, .cls-23 {
        stroke: #eeeeef;
      }

      .cls-1, .cls-14 {
        stroke-linejoin: round;
      }

      .cls-1, .cls-14, .cls-17, .cls-18, .cls-22, .cls-23, .cls-24, .cls-4, .cls-8 {
        stroke-width: 1.5px;
      }

      .cls-2 {
        fill: #ffc07f;
      }

      .cls-3 {
        fill: #f88888;
      }

      .cls-10, .cls-14, .cls-4, .cls-8, .cls-9 {
        stroke: #000;
      }

      .cls-10, .cls-17, .cls-18, .cls-22, .cls-23, .cls-24, .cls-4, .cls-8, .cls-9 {
        stroke-miterlimit: 10;
      }

      .cls-5 {
        fill: #b07156;
      }

      .cls-6 {
        fill: #918e99;
      }

      .cls-7 {
        fill: #f43939;
      }

      .cls-10, .cls-14, .cls-8 {
        stroke-linecap: round;
      }

      .cls-10, .cls-9 {
        stroke-width: 1.7073px;
      }

      .cls-11 {
        fill: #fff;
      }

      .cls-12 {
        fill: #b6b5bc;
      }

      .cls-13 {
        fill: #2b273c;
      }

      .cls-15 {
        fill: #eeeeef;
      }

      .cls-16 {
        fill: #dbdbde;
      }

      .cls-17 {
        stroke: #dbdbde;
      }

      .cls-18 {
        stroke: #fff;
      }

      .cls-19 {
        fill: #c9c8cd;
      }

      .cls-20 {
        fill: #a3a1aa;
      }

      .cls-21 {
        fill: #7e7b88;
      }

      .cls-22 {
        stroke: #c9c8cd;
      }

      .cls-24 {
        stroke: #b6b5bc;
      }
    </style>
  </defs>
  <g id="Layer_4" data-name="Layer 4">
    <g>
      <line class="cls-1" x1="62.14901" y1="92.61694" x2="108.61881" y2="92.61694"/>
      <line class="cls-1" x1="193.72958" y1="89.96538" x2="246.39723" y2="89.96538"/>
      <polyline class="cls-1" points="351.281 168.695 351.281 142.31 331.14 133.651 331.14 83.672 301.226 96.863 301.226 113.878 291.443 113.878 291.443 83.672 250.532 83.672 250.532 119.674 231.127 109.237 197.703 109.237 197.703 124.464 183.504 124.464 183.504 77.565 173.2 67.721 163.074 77.395 163.074 133.919 156.558 133.919 156.558 121.314 108.987 121.314 65.293 156.444 65.293 91.301 14.124 91.301 14.124 194.125"/>
      <line class="cls-1" x1="316.78522" y1="102.6533" x2="316.78522" y2="105.93232"/>
      <line class="cls-1" x1="316.78522" y1="122.51694" x2="316.78522" y2="125.79597"/>
      <line class="cls-1" x1="323.89144" y1="111.74833" x2="323.89144" y2="115.02736"/>
      <line class="cls-1" x1="327.98796" y1="138.37955" x2="327.98796" y2="141.65857"/>
      <line class="cls-1" x1="309.39072" y1="129.19253" x2="309.39072" y2="132.47155"/>
      <line class="cls-1" x1="283.09702" y1="124.15645" x2="283.09702" y2="127.43548"/>
      <line class="cls-1" x1="308.28746" y1="104.91249" x2="308.28746" y2="108.19151"/>
      <line class="cls-1" x1="259.50864" y1="92.61694" x2="259.50864" y2="96.44642"/>
      <line class="cls-1" x1="274.37024" y1="100.73856" x2="274.37024" y2="104.56803"/>
      <line class="cls-1" x1="266.5152" y1="109.83359" x2="266.5152" y2="113.66307"/>
      <line class="cls-1" x1="173.71018" y1="111.74833" x2="173.71018" y2="115.5778"/>
      <line class="cls-1" x1="51.09221" y1="97.59794" x2="51.09221" y2="101.42741"/>
      <line class="cls-1" x1="27.19499" y1="103.1409" x2="27.19499" y2="106.97038"/>
      <line class="cls-1" x1="33.31466" y1="117.88795" x2="33.31466" y2="121.71743"/>
      <line class="cls-1" x1="49.05479" y1="115.81005" x2="49.05479" y2="119.63952"/>
      <line class="cls-1" x1="42.7535" y1="103.1409" x2="42.7535" y2="106.97038"/>
      <line class="cls-1" x1="169.37785" y1="102.79971" x2="169.37785" y2="106.62918"/>
      <line class="cls-1" x1="178.94304" y1="88.78747" x2="178.94304" y2="92.61694"/>
      <line class="cls-1" x1="171.8263" y1="82.4923" x2="171.8263" y2="86.32177"/>
      <line class="cls-1" x1="126.16178" y1="128.21865" x2="126.16178" y2="132.04812"/>
      <line class="cls-1" x1="229.97288" y1="120.6022" x2="229.97288" y2="124.43168"/>
      <line class="cls-1" x1="216.61562" y1="116.77273" x2="216.61562" y2="120.6022"/>
      <line class="cls-1" x1="150.90667" y1="128.73464" x2="150.90667" y2="132.56411"/>
      <line class="cls-1" x1="134.93788" y1="130.13338" x2="134.93788" y2="133.96286"/>
      <line class="cls-1" x1="173.19974" y1="67.72077" x2="173.19974" y2="59.8442"/>
      <path class="cls-1" d="M183.50365,102.52014q3.31755.27881,6.66651.27957h33.64446"/>
      <path class="cls-1" d="M85.10614,81.55119h28.14659a78.876,78.876,0,0,1,37.00484,9.17756l1.0126.53856a77.8717,77.8717,0,0,0,11.80419,5.07414"/>
    </g>
  </g>
  <g id="Layer_2" data-name="Layer 2">
    <path class="cls-2" d="M79.32483,31.656c0-9.73017,8.7529-17.618,19.55015-17.618s18.70427,4.02911,19.48321,16.56415c.60349,9.71143-8.686,18.6719-19.48321,18.6719S79.32483,41.38619,79.32483,31.656Z"/>
    <path class="cls-3" d="M125.44832,153.442c5.37136,14.07879,11.91614,46.55774,11.91614,46.55774H60.15306L61.81152,153.442Z"/>
    <path class="cls-4" d="M117.168,83.36809c8.23609,4.06386,15.61783,7.98515,21.88578,11.46326A44.774,44.774,0,0,0,186.88465,92.069c8.45424-6.06359,12.74731-9.71934,12.74731-9.71934"/>
    <path class="cls-4" d="M65.29271,83.92319a187.2963,187.2963,0,0,0-26.20946,19.87542,14.80936,14.80936,0,0,0-.10194,21.93969A151.30671,151.30671,0,0,0,62.7658,143.89769"/>
    <path class="cls-5" d="M220.92451,79.83486A3.64939,3.64939,0,0,0,219.0149,76.239a3.62376,3.62376,0,0,0-.92916-5.6964,3.62377,3.62377,0,0,0-.92915-5.6964,3.61572,3.61572,0,0,0,.857-3.488,3.6472,3.6472,0,0,0-7.13225,1.39785l2.78745,17.08912a3.64844,3.64844,0,0,0,7.25571-.01026Z"/>
    <path class="cls-6" d="M160.75,113.77019a58.04,58.04,0,0,1-28.177-7.25947q-5.364-2.977-10.85041-5.84685a20.45955,20.45955,0,0,1-10.95891-17.28656l-.3822-9.256a3.91642,3.91642,0,0,1,4.528-4.02944h0A52.538,52.538,0,0,1,130.678,75.21768c4.99766,2.56769,9.96856,5.22238,14.85121,7.932A31.45638,31.45638,0,0,0,179.11329,81.206c7.84442-5.62684,12.94061-9.92048,12.99067-9.96324L209.36,91.63489c-.23687.20035-5.90191,4.98365-14.69113,11.28783A58.20317,58.20317,0,0,1,160.75,113.77019Z"/>
    <path class="cls-5" d="M179.11331,81.206A31.40646,31.40646,0,0,1,161.431,87.07142V113.7572a58.17818,58.17818,0,0,0,33.23784-10.8345C203.458,96.61853,209.12308,91.83522,209.36,91.63487L192.104,71.2427C192.05393,71.28549,186.95772,75.57914,179.11331,81.206Z"/>
    <path class="cls-7" d="M61.81152,147.51423h63.6368c1.47069-12.5838,4.72409-24.33218,5.09918-65.08679a20.816,20.816,0,0,0-16.70659-12.49209,155.20642,155.20642,0,0,0-42.19938.64156A17.278,17.278,0,0,0,57.16279,86.65268C55.98887,107.73737,57.09216,120.67289,61.81152,147.51423Z"/>
    <rect x="61.81152" y="147.51423" width="63.6368" height="5.92776"/>
    <path class="cls-5" d="M81.08951,75.53091,74.341,70.18983a156.98713,156.98713,0,0,1,39.06156-.29947l1.09241,5.72771C107.19515,91.7416,81.08951,75.53091,81.08951,75.53091Z"/>
    <rect class="cls-5" x="84.55714" y="63.20161" width="21.00001" height="8.96046" transform="translate(191.22327 133.7785) rotate(179.0501)"/>
    <path class="cls-5" d="M100.1325,16.72247h0a16.28608,16.28608,0,0,1,16.55482,16.08159l.26545,21.38616a12.66944,12.66944,0,0,1-12.45843,12.825l-19.95289.33083-.42382-34.13751A16.28609,16.28609,0,0,1,100.1325,16.72247Z"/>
    <path class="cls-2" d="M116.73468,36.61652l.01622,1.3073.82835-5.38484c0-9.98761-8.42687-16.867-17.44674-16.71745-8.96686.14863-16.91462,7.80076-16.80323,16.76822L84.288,46.92693c.00013-.00013,6.11257-2.69883,6.00352-6.44107,2.154-1.60025,2.80079-6.36325,1.91875-10.06781s-.51119-7.2327,6.83011-6.93869c5.27967.21145,10.1058.02752,12.4-.09246a3.0979,3.0979,0,0,1,2.656,1.19667C116.07357,27.22285,116.67277,31.62868,116.73468,36.61652Z"/>
    <circle cx="99.04033" cy="42.86035" r="0.99274"/>
    <circle cx="110.86357" cy="42.66432" r="0.95527"/>
    <path class="cls-8" d="M112.846,39.162a3.7861,3.7861,0,0,0-4.084-.18113"/>
    <path class="cls-8" d="M101.01866,39.10928a3.7861,3.7861,0,0,0-4.07581.31642"/>
    <line class="cls-9" x1="105.56324" y1="67.9621" x2="98.80522" y2="68.07415"/>
    <line class="cls-10" x1="104.10949" y1="67.98621" x2="97.35146" y2="68.09826"/>
    <path class="cls-8" d="M104.91968,51.5701l2.39462-.0397a2.1094,2.1094,0,0,0,1.778-3.19936,12.8266,12.8266,0,0,1-1.84275-4.2412"/>
    <path class="cls-11" d="M106.82448,55.991c-3.2767-.70236-5.6707-1.40254-8.90593-2.34309a.19927.19927,0,0,0-.25107.16493c-.30818,3.29139,2.80767,5.36456,9.20792,2.77126A.31082.31082,0,0,0,106.82448,55.991Z"/>
    <circle class="cls-5" cx="84.62938" cy="45.87636" r="6.00541"/>
    <line class="cls-8" x1="85.98806" y1="45.29768" x2="82.97479" y2="42.39711"/>
    <g>
      <rect class="cls-7" x="198.17756" y="10.9448" width="16.9886" height="110.80435" transform="translate(-7.444 30.71585) rotate(-8.34993)"/>
      <rect class="cls-3" x="191.05584" y="11.46465" width="16.9886" height="12.7215" transform="translate(-0.47327 29.1673) rotate(-8.34993)"/>
      <polygon class="cls-12" points="216.55 133.651 206.313 122.395 223.122 119.928 216.55 133.651"/>
      <polygon points="216.55 133.651 212.007 128.656 219.467 127.561 216.55 133.651"/>
    </g>
    <path class="cls-5" d="M204.25634,57.88866h-6.51416a5.04979,5.04979,0,0,0-5.03767,4.70019L192.104,71.2427l8.10738,9.58087c5.16546-9.91573.49185-16.91594.49185-16.91594h3.55315a3.00948,3.00948,0,0,0,3.00948-3.00948h0A3.00948,3.00948,0,0,0,204.25634,57.88866Z"/>
    <path class="cls-8" d="M200.21134,80.82357c4.30618-8.26623,1.7745-14.50627.813-16.3536"/>
    <path class="cls-5" d="M214.9847,64.49067l-.89011.13064a2.90829,2.90829,0,0,1-3.29981-2.45513h0a2.90831,2.90831,0,0,1,2.45514-3.29981l.89012-.13065,3.36054,3.7892Z"/>
    <path class="cls-5" d="M207.945,66.122h8.56052a0,0,0,0,1,0,0v5.43455a0,0,0,0,1,0,0H207.945a2.71727,2.71727,0,0,1-2.71727-2.71727v0A2.71727,2.71727,0,0,1,207.945,66.122Z" transform="translate(-7.76146 31.35144) rotate(-8.34993)"/>
    <path class="cls-5" d="M208.73592,71.52208h8.24192a0,0,0,0,1,0,0v5.43455a0,0,0,0,1,0,0h-8.24192a2.71727,2.71727,0,0,1-2.71727-2.71727v0A2.71728,2.71728,0,0,1,208.73592,71.52208Z" transform="translate(-8.53896 31.5004) rotate(-8.34993)"/>
    <path class="cls-5" d="M212.73146,76.665H217.75a0,0,0,0,1,0,0v5.43455a0,0,0,0,1,0,0h-5.0185a2.71727,2.71727,0,0,1-2.71727-2.71727v0A2.71728,2.71728,0,0,1,212.73146,76.665Z" transform="translate(-9.26053 31.90109) rotate(-8.34992)"/>
    <path class="cls-6" d="M81.21034,69.3906c-3.28428.289-6.49395.67858-9.56882,1.1863-8.00322,1.32157-15.12809,8.21012-15.579,16.3092v46.54216h32.8603A263.21445,263.21445,0,0,0,81.21034,69.3906Z"/>
    <path class="cls-6" d="M136.10414,128.993c-1.357.63039-2.87433,1.29287-4.44509,1.91263-3.47269,1.37837-7.21252,2.52169-10.02274,2.52169,0-24.87515.7907-35.71-14.54256-64.14331,2.26526.16023,4.51983.38465,6.74237.65178,4.787.577,10.13227,2.7977,13.38062,6.11009l9.16516,11.99067,4.381,32.47238A8.188,8.188,0,0,1,136.10414,128.993Z"/>
    <path class="cls-6" d="M56.06252,155.44961a164.53385,164.53385,0,0,1-26.136-19.89183,28.16586,28.16586,0,0,1,.263-41.724q6.98259-6.232,13.72062-11.38009A61.2776,61.2776,0,0,1,72.2054,70.47719l.90476-.13283-.87895,24.99152a172.47055,172.47055,0,0,0-24.2546,18.42782,1.27874,1.27874,0,0,0-.44818,1.00174,1.51849,1.51849,0,0,0,.5087,1.15513,140.482,140.482,0,0,0,21.45443,16.43687Z"/>
    <path class="cls-5" d="M80.00854,134.26855l-5.1835-2.14744a5.82951,5.82951,0,0,0-3.92864-.19127l-1.40484.4276-13.429,23.09217h0a10.38039,10.38039,0,0,0,11.70911-.87256l.799-.64015Z"/>
    <path class="cls-5" d="M54.44676,121.50424,37.06574,141.795a154.23058,154.23058,0,0,0,18.99678,13.65456l13.429-23.09217A130.90289,130.90289,0,0,1,54.449,121.50411Z"/>
    <path class="cls-5" d="M78.6493,156.12638l-7.30313-7.22208-3.99238,4.29047,7.454,6.93615a2.77492,2.77492,0,0,0,3.92178-.14113h0A2.77491,2.77491,0,0,0,78.6493,156.12638Z"/>
    <path class="cls-5" d="M83.25081,150.23912l-10.33895-6.84725L70.07292,148.519l10.07924,6.47168a2.83641,2.83641,0,0,0,4.0139-1.01279h0A2.8364,2.8364,0,0,0,83.25081,150.23912Z"/>
    <path class="cls-5" d="M88.2943,146.21128,75.607,139.20034l-2.712,5.19542,12.7885,6.67557a2.75865,2.75865,0,0,0,3.72207-1.169h0A2.75866,2.75866,0,0,0,88.2943,146.21128Z"/>
    <path class="cls-5" d="M88.89753,138.04911l-12.16466-5.13762L74.869,138.46786l12.05562,4.5284a2.66355,2.66355,0,0,0,3.46187-1.64636h0A2.66354,2.66354,0,0,0,88.89753,138.04911Z"/>
    <path class="cls-8" d="M72.97044,133.42728c-2.17417.60432-3.10436.996-3.03728,4.29929a2.46541,2.46541,0,0,1-1.67464,2.39769c-1.5063.5005-2.14792.88936-2.31606,2.19807a1.82773,1.82773,0,0,1-.91971,1.28605c-1.34351.81766-1.69551,1.99141-1.92213,3.82515"/>
    <path class="cls-13" d="M36.00877,116.21376H48.619a0,0,0,0,1,0,0v33.846a0,0,0,0,1,0,0H43.016a7.0072,7.0072,0,0,1-7.0072-7.0072V116.21376A0,0,0,0,1,36.00877,116.21376Z" transform="translate(94.28568 3.46488) rotate(39.47209)"/>
    <path class="cls-13" d="M162.88756,85.94638h5.60306a0,0,0,0,1,0,0v33.846a0,0,0,0,1,0,0H155.88036a0,0,0,0,1,0,0V92.95359a7.0072,7.0072,0,0,1,7.0072-7.0072Z" transform="translate(324.37098 205.73876) rotate(180)"/>
    <line class="cls-8" x1="56.06252" y1="106.88664" x2="66.80073" y2="98.85212"/>
    <line class="cls-8" x1="139.15162" y1="109.49922" x2="135.5773" y2="93.56912"/>
    <path class="cls-12" d="M86.12452,94.22652,79.59106,83.92319,72.257,87.5577a.8286.8286,0,0,1-1.1807-.90359L74.341,70.18983c3.08821-.41678,6.86934-.79923,6.86934-.79923C84.24548,79.9197,86.12452,94.22652,86.12452,94.22652Z"/>
    <path class="cls-12" d="M118.053,94.22652V80.61041h5.884a.66934.66934,0,0,0,.41169-1.1971l-12.494-9.74626c-2.7435-.31875-4.76094-.38308-4.76094-.38308A148.61857,148.61857,0,0,1,118.053,94.22652Z"/>
    <polygon class="cls-14" points="83.922 110.254 77.725 113.77 70.218 110.254 69.903 105.104 83.607 105.104 83.922 110.254"/>
    <polygon class="cls-14" points="132.867 105.685 129.431 109.651 124.512 106.681 123.818 101.553 132.172 100.558 132.867 105.685"/>
    <g>
      <path class="cls-15" d="M207.97056,16.70206l5.00606,34.10714c50.10794-30.96545,90.98609,34.20441,150.2181,8.24852a1.66091,1.66091,0,0,0,.73161-2.39375l-7.83064-12.66012L359.65078,24.356a.80579.80579,0,0,0-1.19263-.84088C306.38462,52.42971,260.16412-14.06475,207.97056,16.70206Z"/>
      <path class="cls-3" d="M229.61324,16.4864c.58244,1.672,1.0739,3.09676,1.81843,5.266a42.92483,42.92483,0,0,1,6.02028-.64755A.90891.90891,0,0,1,238.0242,22.74c-1.58694,1.19162-2.89194,2.25428-4.9003,3.97257.7899,2.32915,1.295,3.82649,1.926,5.71417a.90855.90855,0,0,1-1.33971,1.05986c-1.64019-1.01736-2.95942-1.7424-5.01663-2.7775-1.85992,1.7668-3.11662,3.00647-4.55266,4.5355a.90777.90777,0,0,1-1.53434-.87353c.51511-1.77547.982-3.37116,1.65669-5.66742a40.29886,40.29886,0,0,0-4.73592-1.64772.90936.90936,0,0,1-.14706-1.70317,40.06216,40.06216,0,0,1,6.57519-2.37436c.79187-2.66333,1.29748-4.35458,1.93078-6.45362A.90842.90842,0,0,1,229.61324,16.4864Z"/>
      <path class="cls-3" d="M256.8694,17.9517c.59281,1.96658,1.06543,3.54138,1.80627,6.0154,2.48539.65082,4.03795,1.10359,6.05816,1.75735a.84794.84794,0,0,1,.05186,1.59257c-1.46068.59023-2.67356,1.11037-4.52918,1.94236.64787,2.17418,1.09062,3.6627,1.588,5.34014a.84812.84812,0,0,1-1.416.83745c-1.36573-1.38037-2.54832-2.54017-4.31067-4.23121-1.94913.962-3.18911,1.59972-4.752,2.47793a.84852.84852,0,0,1-1.21763-1.014c.60447-1.76906,1.07987-3.1514,1.831-5.32789-1.86223-1.68792-3.07714-2.76144-4.54479-3.98232a.84833.84833,0,0,1,.6332-1.49636c1.75869.2011,3.24376.46248,5.49241.91466.69461-1.99812,1.15344-3.31391,1.69663-4.86364A.84859.84859,0,0,1,256.8694,17.9517Z"/>
      <path class="cls-3" d="M284.259,27.111c.61118,2.11639,1.08841,3.76878,1.8455,6.38929,2.49816.9583,4.0547,1.55575,6.08928,2.29991a.84915.84915,0,0,1-.00377,1.5961c-1.44865.52184-2.65868.94166-4.50327,1.57878.62628,2.16619,1.061,3.66961,1.53854,5.31942a.84862.84862,0,0,1-1.44385.80633c-1.33451-1.4774-2.50652-2.78222-4.237-4.706-2.051.70026-3.31747,1.13-4.99976,1.71553a.85034.85034,0,0,1-1.0758-1.098c.65435-1.76781,1.14029-3.07877,1.93321-5.21691-1.77973-1.9714-2.96874-3.2867-4.35132-4.79875a.849.849,0,0,1,.92121-1.369c1.55844.57809,2.971,1.12021,5.01233,1.90326.68061-1.83361,1.135-3.05743,1.664-4.48157A.84873.84873,0,0,1,284.259,27.111Z"/>
      <path class="cls-3" d="M311.66882,36.86193c.55236,1.825.9926,3.27274,1.68279,5.5357,2.22239.4469,3.64393.69369,5.41895.88563a.79051.79051,0,0,1,.3315,1.45637c-1.38734.86316-2.5246,1.51121-4.27815,2.46985.63427,2.0661,1.05745,3.441,1.55054,5.03447a.78964.78964,0,0,1-1.281.82128c-1.31888-1.18256-2.43588-2.23361-4.1241-3.85349-1.87281.92431-3.04263,1.47128-4.56491,2.13448a.78979.78979,0,0,1-1.056-.99322c.59262-1.64726,1.04173-2.90088,1.76635-4.92947-1.67486-1.68278-2.7875-2.82138-4.09283-4.189a.78988.78988,0,0,1,.808-1.29872c1.48736.46768,2.8171.84613,4.7571,1.35414.647-1.82185,1.07435-3.02808,1.58035-4.46331A.79033.79033,0,0,1,311.66882,36.86193Z"/>
      <path class="cls-3" d="M339.168,38.32146c.52664,1.49455.97092,2.74243,1.644,4.62185a39.13407,39.13407,0,0,0,4.71666-1.60134.82.82,0,0,1,.9468,1.284c-1.30583,1.53651-2.4446,2.78017-4.13383,4.55762.76583,2.10757,1.23546,3.39038,1.86715,5.09365a.82182.82182,0,0,1-1.04815,1.05952,41.61877,41.61877,0,0,1-4.82358-2.14687c-1.7776,1.6886-2.94564,2.74754-4.34024,3.91618a.821.821,0,0,1-1.30871-.87746c.52675-1.66805.97108-3.08637,1.64431-5.24525-1.81922-1.087-3-1.84143-4.43855-2.8519a.82126.82126,0,0,1,.44763-1.49206,38.6514,38.6514,0,0,0,5.52056-.58783c.71622-2.32187,1.17337-3.8112,1.74631-5.69482A.82115.82115,0,0,1,339.168,38.32146Z"/>
    </g>
    <circle class="cls-2" cx="88.78816" cy="15.81914" r="7.14136"/>
    <rect class="cls-2" x="84.76963" y="12.28065" width="14.42333" height="5.30767" rx="2.43183" transform="translate(7.84678 54.99669) rotate(-34.68463)"/>
  </g>
  <g id="Layer_3" data-name="Layer 3">
    <g>
      <rect class="cls-12" x="299.32762" y="121.50411" width="25.97651" height="78.49929" transform="translate(624.63175 321.50751) rotate(180)"/>
      <polygon class="cls-15" points="122.264 158.012 159.277 148.772 196.291 158.012 196.291 200.003 122.264 200.003 122.264 158.012"/>
      <rect class="cls-15" x="72.75291" y="169.71704" width="49.51071" height="30.28636"/>
      <rect class="cls-16" x="72.75288" y="166.84509" width="49.51073" height="2.87196"/>
      <polyline class="cls-17" points="141.07 200 141.07 178.824 170.755 178.824 170.755 200"/>
      <rect class="cls-16" x="122.26361" y="169.71704" width="74.02756" height="5.15329" transform="translate(318.55479 344.58737) rotate(-180)"/>
      <rect class="cls-18" x="141.06998" y="158.35708" width="29.68496" height="7.25178" rx="0.19909"/>
      <rect class="cls-16" x="219.31107" y="156.33555" width="52.95543" height="43.66785" transform="translate(491.57758 356.33895) rotate(-180)"/>
      <rect class="cls-19" x="196.29117" y="156.33555" width="53.81513" height="43.66785" transform="translate(446.39748 356.33895) rotate(-180)"/>
      <rect class="cls-12" x="200.77849" y="172.28711" width="18.53258" height="19.32446" transform="translate(420.08957 363.89868) rotate(-180)"/>
      <polygon class="cls-20" points="200.777 172.291 200.777 187.465 219.314 182.542 219.314 172.291 200.777 172.291"/>
      <rect class="cls-6" x="224.70903" y="172.28711" width="12.44157" height="27.7163" transform="translate(461.85962 372.29052) rotate(-180)"/>
      <polygon class="cls-21" points="237.153 172.291 224.713 172.291 224.713 181.104 237.153 177.802 237.153 172.291"/>
      <rect class="cls-16" x="206.31353" y="149.28309" width="49.30997" height="7.05246" transform="translate(461.93702 305.61863) rotate(-180)"/>
      <rect class="cls-19" x="196.29118" y="149.28309" width="53.81513" height="7.05246" transform="translate(446.39748 305.61863) rotate(-180)"/>
      <rect class="cls-22" x="255.62344" y="175.89843" width="10.36503" height="11.56686"/>
      <line class="cls-17" x1="155.91245" y1="199.99973" x2="155.91245" y2="178.82399"/>
      <rect class="cls-15" x="53.09588" y="139.54606" width="21.77358" height="60.45734" transform="translate(127.96535 339.54946) rotate(-180)"/>
      <rect class="cls-16" x="299.32762" y="137.00581" width="51.95301" height="62.99419"/>
      <rect class="cls-15" x="351.28063" y="137.00581" width="23.71937" height="62.99419" transform="translate(726.28063 337.00581) rotate(-180)"/>
      <rect class="cls-17" x="83.46375" y="175.70244" width="7.70267" height="10.76287" transform="translate(174.63017 362.16775) rotate(-180)"/>
      <polyline class="cls-17" points="97.508 200.003 97.508 175.702 111.285 175.702 111.285 200.003"/>
      <path class="cls-19" d="M325.30415,164.15716a7.86841,7.86841,0,0,1,7.86839,7.86839H317.43572A7.86845,7.86845,0,0,1,325.30415,164.15716Z"/>
      <line class="cls-17" x1="325.30413" y1="173.11929" x2="325.30413" y2="161.49318"/>
      <line class="cls-17" x1="325.30413" y1="173.11929" x2="333.98481" y2="164.43861"/>
      <line class="cls-17" x1="325.30413" y1="173.11929" x2="316.62345" y2="164.43861"/>
      <rect class="cls-18" x="64.92497" y="144.43773" width="3.70756" height="7.16328" transform="translate(133.5575 296.03873) rotate(-180)"/>
      <rect class="cls-18" x="57.70498" y="165.04974" width="3.70756" height="7.16328" transform="translate(119.11752 337.26277) rotate(-180)"/>
      <rect class="cls-19" x="317.43572" y="174.16334" width="15.73682" height="25.84006" transform="translate(650.60825 374.16674) rotate(-180)"/>
      <line class="cls-22" x1="299.32762" y1="154.56704" x2="375" y2="154.56704"/>
      <rect class="cls-23" x="312.77657" y="141.96402" width="25.05511" height="8.51543" transform="translate(650.60825 292.44347) rotate(-180)"/>
      <line class="cls-22" x1="363.14032" y1="200" x2="363.14032" y2="180.40444"/>
      <circle class="cls-12" cx="363.14032" cy="182.06297" r="6.75164"/>
      <circle class="cls-12" cx="363.14032" cy="172.15454" r="4.75199"/>
      <line class="cls-17" x1="71.47568" y1="200.0034" x2="71.47568" y2="186.20649"/>
      <circle class="cls-16" cx="71.47568" cy="183.1445" r="5.66468"/>
      <polygon class="cls-11" points="245.789 155.429 200.777 155.429 192.139 165.333 237.151 165.333 245.789 155.429"/>
      <rect class="cls-11" x="192.13901" y="165.33284" width="45.01351" height="4.3842"/>
      <rect class="cls-7" x="192.13901" y="165.33284" width="9.00232" height="4.3842"/>
      <rect class="cls-7" x="210.14364" y="165.33284" width="9.00232" height="4.3842"/>
      <rect class="cls-7" x="228.14828" y="165.33284" width="9.00232" height="4.3842"/>
      <polygon points="245.789 155.429 237.153 165.333 237.153 169.717 245.789 169.717 245.789 155.429"/>
      <polygon class="cls-7" points="201.141 165.333 192.139 165.333 200.777 155.429 209.78 155.429 201.141 165.333"/>
      <polygon class="cls-7" points="219.146 165.333 210.144 165.333 218.782 155.429 227.784 155.429 219.146 165.333"/>
      <polygon class="cls-7" points="237.151 165.333 228.148 165.333 236.786 155.429 245.789 155.429 237.151 165.333"/>
      <rect class="cls-19" x="263.57064" y="121.50411" width="35.75698" height="78.49929"/>
      <rect class="cls-24" x="286.46229" y="141.96402" width="5.43518" height="12.60302"/>
      <rect class="cls-24" x="276.01395" y="159.93776" width="5.43518" height="12.60302"/>
      <line class="cls-24" x1="299.32762" y1="136.3912" x2="263.57064" y2="136.3912"/>
      <rect class="cls-16" y="156.33555" width="53.09588" height="43.66785"/>
      <rect class="cls-20" x="14.8304" y="170.66882" width="45.76765" height="2.3677"/>
      <rect class="cls-20" x="14.8304" y="162.43598" width="38.36835" height="2.3677"/>
      <polygon class="cls-12" points="14.83 170.669 60.598 170.669 53.199 164.804 14.83 164.804 14.83 170.669"/>
      <rect class="cls-19" x="41.64254" y="173.03652" width="7.92466" height="11.55617"/>
      <rect class="cls-19" x="14.8304" y="173.03652" width="7.92466" height="11.55617" transform="translate(37.58546 357.62922) rotate(180)"/>
      <rect class="cls-19" x="26.40106" y="173.03652" width="11.59547" height="26.96687"/>
    </g>
  </g>
</svg>
